<svg width="167" height="259" viewBox="0 0 167 259" fill="none" xmlns="http://www.w3.org/2000/svg">
<path d="M24.4674 186.191C12.2005 174.455 6.06712 156.32 6.06712 131.786C6.06712 107.186 12.2005 89.0178 24.4674 77.2814C36.8005 65.4787 55.2671 59.5773 79.8671 59.5773H102.047C117.099 59.5773 130.393 63.4895 141.931 71.3137C153.535 79.138 159.336 89.8466 159.336 103.44C159.336 107.352 158.176 110.17 155.855 111.894C153.535 113.551 151.28 114.38 149.092 114.38H137.256C131.156 114.38 126.415 110.733 123.033 103.44C118.126 92.9631 109.971 87.7248 98.5658 87.7248H80.8617C66.3404 87.7248 56.4938 90.8412 51.3218 97.0741C46.1499 103.307 43.5639 114.844 43.5639 131.687C43.5639 148.529 46.1499 160.099 51.3218 166.398C56.4938 172.631 66.3404 175.748 80.8617 175.748H100.654C112.059 175.748 120.182 170.509 125.022 160.033C128.404 152.673 133.178 148.993 139.345 148.993H151.181C154.297 148.993 156.75 150.153 158.541 152.474C160.397 154.795 161.326 157.314 161.326 160.033C161.326 173.626 155.557 184.334 144.019 192.159C132.482 199.917 119.187 203.796 104.136 203.796H79.8671C55.2671 203.796 36.8005 197.927 24.4674 186.191Z" fill="#43897D"/>
<path d="M67.8985 118.823V134.447" stroke="#103F37" stroke-width="17.3605" stroke-linecap="round"/>
<path d="M101.848 118.823V134.447" stroke="#103F37" stroke-width="17.3605" stroke-linecap="round"/>
</svg>
