<svg width="206" height="89" viewBox="0 0 206 89" fill="none" xmlns="http://www.w3.org/2000/svg">
<path d="M8.41214 64.2209C4.19467 60.1858 2.08594 53.9508 2.08594 45.5159C2.08594 37.0581 4.19467 30.8117 8.41214 26.7766C12.6524 22.7187 19.0014 20.6898 27.4591 20.6898H35.0848C40.2597 20.6898 44.8306 22.0348 48.7973 24.7249C52.7868 27.415 54.7815 31.0967 54.7815 35.7701C54.7815 37.1151 54.3826 38.084 53.5847 38.6767C52.7868 39.2467 52.0117 39.5316 51.2594 39.5316H47.1901C45.0927 39.5316 43.4627 38.2778 42.3001 35.7701C40.6131 32.1682 37.809 30.3672 33.8879 30.3672H27.8011C22.8085 30.3672 19.4232 31.4387 17.645 33.5816C15.8668 35.7245 14.9777 39.6912 14.9777 45.4817C14.9777 51.2722 15.8668 55.2503 17.645 57.416C19.4232 59.5589 22.8085 60.6304 27.8011 60.6304H34.606C38.5272 60.6304 41.3198 58.8294 42.984 55.2275C44.1466 52.697 45.788 51.4317 47.9082 51.4317H51.9775C53.0489 51.4317 53.8924 51.8307 54.5079 52.6286C55.1463 53.4265 55.4654 54.2928 55.4654 55.2275C55.4654 59.9009 53.4821 63.5826 49.5154 66.2727C45.5487 68.9399 40.9778 70.2736 35.8029 70.2736H27.4591C19.0014 70.2736 12.6524 68.256 8.41214 64.2209ZM61.4497 54.2358V34.6416C61.4497 34.0261 61.6434 33.5246 62.031 33.137C62.4413 32.7267 62.9429 32.5215 63.5356 32.5215H71.1954C71.7882 32.5215 72.2783 32.7267 72.6659 33.137C73.0762 33.5246 73.2814 34.0261 73.2814 34.6416V54.2358C73.2814 59.7071 75.4471 62.4428 79.7786 62.4428C82.6282 62.4428 85.6944 60.8014 88.9772 57.5186V34.6416C88.9772 34.0261 89.171 33.5246 89.5585 33.137C89.9689 32.7267 90.4704 32.5215 91.0631 32.5215H98.6888C99.3043 32.5215 99.8058 32.7267 100.193 33.137C100.604 33.5246 100.809 34.0261 100.809 34.6416V67.9141C100.809 68.5068 100.604 69.0083 100.193 69.4187C99.8058 69.8062 99.3043 70 98.6888 70H91.0631C90.4704 70 89.9689 69.8062 89.5585 69.4187C89.171 69.0083 88.9772 68.5068 88.9772 67.9141V65.7255C85.0561 69.0311 80.8728 70.6839 76.4274 70.6839C72.0047 70.6839 68.4028 69.3389 65.6215 66.6488C62.8403 63.936 61.4497 59.7983 61.4497 54.2358ZM135.176 41.2072L129.909 41.002C126.832 41.002 123.891 42.689 121.087 46.063V67.9141C121.087 68.5296 120.882 69.0311 120.471 69.4187C120.084 69.8062 119.594 70 119.001 70H111.341C110.726 70 110.224 69.8062 109.837 69.4187C109.449 69.0311 109.255 68.5296 109.255 67.9141V34.6416C109.255 34.0261 109.449 33.5246 109.837 33.137C110.247 32.7267 110.748 32.5215 111.341 32.5215H119.001C119.617 32.5215 120.118 32.7267 120.506 33.137C120.893 33.5246 121.087 34.0261 121.087 34.6416V36.796C123.412 35.109 125.646 33.8665 127.789 33.0686C129.955 32.2479 132.782 31.8376 136.27 31.8376C136.885 31.8376 137.387 32.0428 137.774 32.4531C138.185 32.8407 138.39 33.3308 138.39 33.9235V39.1213C138.39 39.7368 138.185 40.2383 137.774 40.6259C137.387 41.0134 136.885 41.2072 136.27 41.2072H135.176ZM143.314 25.3746V24.212C143.314 23.0037 143.656 22.0462 144.34 21.3395C145.047 20.6328 146.016 20.2795 147.247 20.2795H151.487C152.695 20.2795 153.653 20.6328 154.359 21.3395C155.066 22.0234 155.419 22.9809 155.419 24.212V25.3746C155.419 26.5829 155.066 27.5403 154.359 28.2471C153.675 28.9538 152.718 29.3071 151.487 29.3071H147.247C146.038 29.3071 145.081 28.9538 144.374 28.2471C143.668 27.5403 143.314 26.5829 143.314 25.3746ZM143.451 67.9141V35.4623C143.451 34.8468 143.645 34.3453 144.032 33.9577C144.443 33.5702 144.944 33.3764 145.537 33.3764H153.197C153.812 33.3764 154.314 33.5816 154.701 33.9919C155.089 34.3795 155.283 34.8696 155.283 35.4623V67.9141C155.283 68.5296 155.077 69.0311 154.667 69.4187C154.28 69.8062 153.789 70 153.197 70H145.537C144.921 70 144.42 69.8062 144.032 69.4187C143.645 69.0311 143.451 68.5296 143.451 67.9141ZM167.046 65.7597C163.49 62.4769 161.711 57.644 161.711 51.2608C161.711 44.8548 163.49 40.0218 167.046 36.7618C170.602 33.479 175.709 31.8376 182.366 31.8376C189.045 31.8376 194.163 33.479 197.72 36.7618C201.276 40.0218 203.054 44.8548 203.054 51.2608C203.054 57.644 201.276 62.4769 197.72 65.7597C194.163 69.0425 189.045 70.6839 182.366 70.6839C175.709 70.6839 170.602 69.0425 167.046 65.7597ZM175.697 42.3699C174.284 44.2164 173.577 47.1687 173.577 51.2266C173.577 55.2845 174.284 58.2481 175.697 60.1174C177.111 61.9868 179.334 62.9215 182.366 62.9215C185.42 62.9215 187.655 61.9868 189.068 60.1174C190.504 58.2481 191.222 55.2845 191.222 51.2266C191.222 47.1687 190.504 44.2164 189.068 42.3699C187.655 40.5233 185.42 39.6 182.366 39.6C179.334 39.6 177.111 40.5233 175.697 42.3699Z" fill="#43897D"/>
<path d="M23.3442 40.8525V46.2244" stroke="#103F37" stroke-width="5.9687" stroke-linecap="round"/>
<path d="M35.0164 40.8525V46.2244" stroke="#103F37" stroke-width="5.9687" stroke-linecap="round"/>
</svg>
